<?xml version="1.0" encoding="utf-8"?>
<!-- Generator: Adobe Illustrator 21.1.0, SVG Export Plug-In . SVG Version: 6.00 Build 0)  -->
<svg version="1.1" id="Capa_1" xmlns="http://www.w3.org/2000/svg" xmlns:xlink="http://www.w3.org/1999/xlink" x="0px" y="0px"
	 viewBox="0 0 1200 920" style="enable-background:new 0 0 1200 920;" xml:space="preserve">
<style type="text/css">
	.st0{fill:#030B19;}
</style>
<title>logo_escom-01</title>
<path class="st0" d="M100,362.6c0.6-2,1.3-4,1.7-6.1c4.5-23.5,17.9-40.9,38.9-51.5c44.9-22.6,90.3-44.3,135.5-66.3l99.7-48.6
	c15.5-7.6,31-15.2,46.6-22.6c2-0.9,4.1-1.4,6.2-1.4c112.7-0.1,225.3-0.1,337.9,0c2.1,0,4.3,0.5,6.2,1.5
	c86.5,41.9,172.9,83.9,259.3,125.9c9.4,4.6,18.9,9,28.3,13.6c21.1,10.6,34.8,27.2,38.8,50.8c3.7,22.1-4.1,40.6-18.9,56.6
	c-8.9,9.6-19.6,17.4-31.4,23c-59.4,28.9-118.7,58-178,87.2c-33.1,16.2-66.2,32.4-99.3,48.5c-1.8,0.9-3.8,1.3-5.8,1.3
	c-112.1,0.1-224.2,0.1-336.3,0c-2.7-0.1-5.3-0.8-7.7-2c-50-24.8-100-49.7-150.1-74.6c-44.1-21.9-88.3-43.5-132.2-65.6
	c-22.3-11.2-35.8-29.1-38.5-54.4c-0.2-1-0.5-2.1-0.9-3.1C100,370.8,100,366.7,100,362.6z M625.9,554.5c2.4,0.2,3.6,0.3,4.7,0.3
	c43.7,0,87.4,0,131.2,0c1.9,0,3.7-0.4,5.5-1.2c52.3-25.6,104.5-51.2,156.7-76.8c36.3-17.8,72.4-35.7,108.8-53.2
	c13.9-6.7,27-14.1,36.6-26.6c5.7-7.5,10.3-15.5,10.7-25.1c1-22-9.3-37.6-28.6-47.1c-41-20.2-82.2-39.9-123.3-59.8
	c-53.8-26.1-107.6-52.2-161.4-78.4c-1.6-0.8-3.3-1.2-5.1-1.2c-52.4-0.1-104.9-0.1-157.3,0c-1.6,0-3.2,0.4-4.6,1.1
	c-5.5,3.2-10.8,6.9-16.4,10c-38.2,21.1-76.7,41.8-114.8,63.1c-35.1,19.7-69.6,40.5-101.8,64.9c-13.6,10.3-27,20.9-37.2,34.7
	c-10.3,14-10.3,18.7,2.1,31.8c9.8,10.3,21.8,17.6,34.3,24.1c42,21.7,86.7,34.5,133.7,39.2c5.9,0.6,12,0.1,18,0.1
	c-0.8-1.4-2-2.6-3.3-3.5c-7.9-5.7-15-12.3-20.4-20.4c-15.2-22.8-16.8-45.2-1-67.9c8-11.2,17.5-21.3,28.2-29.9
	c30.9-25.3,65.8-43.8,102.6-58.8c17.2-6.9,35.3-11,53.8-12.1c18.4-1.3,36.3,1.4,54,6.2c43.8,11.8,85.2,29.7,124.6,52
	c7.1,4,13.7,8.8,19.6,14.5c9.7,9,14.3,22.2,12.3,35.3c-2.8,21-14,37-32,47.8c-72.5,43.3-145,86.5-217.7,129.6
	C634.6,549.3,630.8,551.5,625.9,554.5z M672.8,281.2c0.1,1.3,0,1.7,0.2,1.8c0.8,0.9,1.7,1.7,2.6,2.5c11,9.9,20.7,20.9,27.1,34.4
	c8.8,18.8,8.7,37.1-4.8,53.9c-4,5-8.8,9.3-13.5,13.6c-28.9,26.9-60.3,50.5-96.2,67.5c-19.3,9.1-39.4,15.6-60.6,18.2
	c-16.8,2.1-33.4,0.4-50-2.2c-41.4-6.3-81-18.5-118.3-37.5c-15.7-8-30.6-17.2-42.9-30.2c-7.9-8.4-14.1-17.6-13.7-29.9
	c0.3-8.8,4.1-16.2,9-23.2c9.2-13.4,21.2-24,33.8-34.1c30.6-24.6,63.9-45.4,98-64.8c37.7-21.5,75.9-42.1,113.9-63.1
	c1.2-0.7,2.3-1.4,4.4-2.8c-2.2-0.2-3.1-0.3-4-0.3c-41.4,0-82.8,0-124.2,0.1c-2.3,0.1-4.6,0.6-6.6,1.6c-35.7,17.3-71.4,34.7-107,52.2
	c-47.7,23.2-95.3,46.5-143,69.7c-11.2,5.5-23,10.3-33.3,17.3c-34,22.9-31.2,71.2,4.6,88.7c26.4,12.9,52.7,25.9,79,39
	c66.4,33,132.7,65.9,199.1,98.9c2.5,1.2,5.3,1.9,8.1,1.9c48.1,0.1,96.2,0,144.3,0.2c5.2,0.2,10.3-1.2,14.8-4
	c22.7-14,45.8-27.3,68.7-41c61-36.3,122-72.6,183.1-109c6.8-4,12.6-9.7,16.8-16.4c11.7-18.3,8.4-34-10.5-44.7
	c-15.9-9-32.2-17.6-48.9-25.2c-33.7-15.4-68.1-28.9-105.2-33.4C689.4,280.4,681.1,281.2,672.8,281.2L672.8,281.2z M689,344.2
	l1.2-0.4c-2.3-6.3-4-13-7.2-18.8c-8.4-15.5-21.5-26.9-35.9-36.7c-1.4-0.7-3-0.9-4.5-0.4c-40,14.3-77.3,33.7-110.1,60.9
	c-11.1,9.1-21.4,19.1-27.5,32.4c-2.1,4.4-3.7,9.6-3.5,14.4c0.3,9.2,4,17.6,9.7,25.1c7.3,9.6,17.1,16.1,27.5,22
	c8.6,4.8,16.4,5.2,25.7,1.4c45.3-18.3,83-47.3,117.2-81.4C686.5,357.8,689.2,351.2,689,344.2L689,344.2z"/>
<path class="st0" d="M600.2,100h367.8c1.5-0.1,3,0,4.5,0.1c3.6,0.6,6.4,3.6,6.6,7.3c0.2,3.7-2.2,7-5.8,7.9c-1.7,0.4-3.5,0.5-5.3,0.5
	c-245.4,0-490.9,0-736.3,0c-7.5,0-10.8-2.6-10.7-8.1c-0.1-4,3-7.3,7-7.6c1.4-0.1,2.7,0,4.1,0L600.2,100z"/>
<path class="st0" d="M600.2,624.8h367.8c1.5-0.1,3,0,4.5,0.1c3.6,0.6,6.4,3.6,6.6,7.3c0.2,3.7-2.2,7-5.8,7.9
	c-1.7,0.4-3.5,0.5-5.3,0.5c-245.4,0-490.9,0-736.3,0c-7.5,0-10.8-2.5-10.7-8.1c-0.1-4,3-7.3,7-7.6c1.4-0.1,2.7,0,4.1,0L600.2,624.8z
	"/>
<path class="st0" d="M273.4,819.6V692.5h81.2v18.8h-61.4v34.6h56.9v18.8h-56.9v36.3h61.6v18.8H273.4z"/>
<path class="st0" d="M378.6,796.4l13.4-12.9c7,12.9,18.9,19.4,31.5,19.4c13.1,0,21.7-7.7,21.7-17.4c0-6.4-4.1-11.9-12.6-16.3
	c-2.1-1-6.4-2.9-12.9-5.7c-6.4-2.9-11.4-5.3-14.6-7.2c-12.9-7.7-19.3-18.1-19.3-30.8c-0.2-9.6,3.8-18.8,11-25.1
	c7.4-6.7,17-10.2,28.9-10.2c16,0,28.9,6,38.7,18.2l-12.2,13.6c-7.1-8.8-15.8-13.1-26.3-13.1c-11,0-18.9,6-18.9,15.5
	c0,6,3.6,11.2,10.7,15.1c2.2,1.2,6.9,3.6,14.3,7c7.4,3.3,12.6,5.8,15.6,7.6c12.9,7,19.4,17.2,19.4,30.3c0.2,10.3-4.3,20.2-12.2,26.8
	c-8.1,6.9-18.6,10.3-31.3,10.3C405,821.7,387.8,812.7,378.6,796.4z"/>
<path class="st0" d="M510.6,803.3c-12.6-12.2-18.9-27.7-18.9-46.8c0-19.3,6.4-35.1,19.3-47.5c12.9-12.6,28.4-18.8,46.6-18.8
	c11.1-0.1,22,2.5,31.8,7.6c9.8,5,17.4,11.5,22.9,19.8l-14.1,12.7c-10.5-13.9-23.7-20.8-40.1-20.8c-12.3-0.2-24.1,4.6-32.7,13.4
	c-8.8,8.9-13.2,20.1-13.2,33.5s4.3,24.4,13.1,33s19.6,12.9,32.7,12.9c16.7,0,30.4-6.9,40.9-20.6l14.1,12.4
	c-11.9,16.3-32.5,27.4-55.9,27.4C538.6,821.5,523.1,815.5,510.6,803.3z"/>
<path class="st0" d="M652,802.9c-12.6-12.6-18.8-28-18.8-46.3c0-18.4,6.4-34.1,19.3-47s28.4-19.4,46.6-19.4
	c18.4,0,33.9,6.4,46.8,19.3s19.3,28.4,19.3,46.6s-6.4,33.7-19.3,46.4s-28.5,19.1-47.3,19.1C680.2,821.7,664.5,815.5,652,802.9z
	 M731.2,789.2c8.8-8.8,13.2-19.8,13.2-32.8c0-13.2-4.5-24.4-13.2-33.2c-17.8-17.7-46.6-17.7-64.3,0.1c0,0,0,0,0,0
	c-8.8,8.8-13.1,19.8-13.1,33c0,12.9,4.3,23.9,12.9,32.7c8.8,8.8,19.4,13.2,32.3,13.2C711.8,802.2,722.5,797.9,731.2,789.2z"/>
<path class="st0" d="M798.3,819.6V692.5h10.8l53.3,77.9l53-77.9h11.2v127.1h-20v-81.3l-41.4,60.5h-5.8l-41.5-60.5v81.3H798.3z"/>
</svg>
