<svg id="Capa_1" data-name="Capa 1" xmlns="http://www.w3.org/2000/svg" viewBox="0 0 1200 920"><defs><style>.cls-1{fill:#fff;}</style></defs><title>logo_escom-01</title><path class="cls-1" d="M100,362.65c.57-2,1.29-4,1.68-6.07,4.51-23.55,17.88-40.92,38.9-51.48,44.93-22.59,90.32-44.28,135.52-66.34l99.69-48.64c15.52-7.57,31-15.18,46.58-22.64a14.89,14.89,0,0,1,6.23-1.4q169-.1,337.9,0a14.75,14.75,0,0,1,6.2,1.48Q902.4,230.45,1032,293.47c9.41,4.57,18.92,8.95,28.27,13.65,21.13,10.63,34.81,27.17,38.77,50.77,3.7,22.06-4.1,40.58-18.86,56.63a103.43,103.43,0,0,1-31.37,23q-89.09,43.4-178,87.2-49.62,24.32-99.28,48.55a13.75,13.75,0,0,1-5.82,1.33q-168.13.09-336.27,0a18.14,18.14,0,0,1-7.7-2Q346.71,535.35,271.69,498c-44.08-21.89-88.27-43.54-132.24-65.64-22.28-11.2-35.76-29.12-38.54-54.38a17.19,17.19,0,0,0-.92-3.06Q100,368.77,100,362.65ZM625.92,554.46c2.44.19,3.58.35,4.73.35q65.58,0,131.17,0a12.86,12.86,0,0,0,5.45-1.21q78.4-38.35,156.74-76.82c36.25-17.78,72.42-35.72,108.8-53.22,13.89-6.68,27-14.06,36.58-26.56,5.7-7.46,10.29-15.49,10.74-25.09,1-22-9.32-37.63-28.61-47.14-41-20.18-82.17-39.9-123.26-59.84q-80.72-39.17-161.43-78.36a12,12,0,0,0-5.06-1.18q-78.66-.09-157.32,0a9.5,9.5,0,0,0-4.59,1.14c-5.52,3.22-10.77,6.9-16.36,10-38.23,21.07-76.68,41.76-114.76,63.11-35.15,19.7-69.63,40.53-101.83,64.87-13.59,10.27-27,20.85-37.21,34.7-10.31,14-10.29,18.67,2.09,31.76,9.76,10.31,21.79,17.61,34.27,24.06,42,21.7,86.68,34.49,133.68,39.19,5.93.59,12,.08,18,.08a10.79,10.79,0,0,0-3.35-3.45c-7.92-5.68-15-12.26-20.41-20.39-15.16-22.76-16.8-45.24-1-67.94a148.9,148.9,0,0,1,28.23-29.87c30.92-25.3,65.75-43.78,102.61-58.81a172.8,172.8,0,0,1,53.78-12.13c18.41-1.28,36.33,1.38,54,6.16,43.81,11.84,85.15,29.68,124.57,52a97.75,97.75,0,0,1,19.6,14.45,39.87,39.87,0,0,1,12.29,35.27c-2.85,21-14,37-32,47.79Q747.36,482.34,638.37,547C634.58,549.25,630.79,551.53,625.92,554.46Zm46.91-273.27c.11,1.33,0,1.68.17,1.83.85.88,1.72,1.73,2.62,2.55,11,9.91,20.73,20.9,27.06,34.43,8.82,18.83,8.74,37.13-4.79,53.94-4,5-8.8,9.29-13.47,13.64-28.93,26.94-60.26,50.49-96.18,67.5-19.28,9.13-39.37,15.61-60.61,18.23-16.76,2.06-33.38.36-50-2.17-41.41-6.32-81-18.53-118.33-37.54-15.71-8-30.63-17.23-42.85-30.17-7.9-8.37-14.14-17.61-13.67-29.9.33-8.8,4.11-16.23,9-23.23,9.24-13.35,21.24-24,33.79-34.12,30.65-24.61,63.92-45.36,98-64.75,37.7-21.46,75.88-42.07,113.85-63.06,1.21-.67,2.34-1.45,4.44-2.76-2.16-.16-3.09-.29-4-.29q-62.11,0-124.23.06A15.79,15.79,0,0,0,427,187Q373.45,213,320,239.21q-71.48,34.86-143,69.74c-11.22,5.49-23,10.33-33.25,17.26-34,22.89-31.18,71.17,4.57,88.72q39.55,19.41,79,39,99.54,49.43,199.08,98.86a19.05,19.05,0,0,0,8.13,1.9c48.08.11,96.17,0,144.25.15a26.25,26.25,0,0,0,14.76-4c22.71-14,45.79-27.34,68.7-41q91.54-54.47,183.07-109a50.07,50.07,0,0,0,16.79-16.36c11.69-18.27,8.39-34-10.48-44.7-15.94-9.05-32.22-17.63-48.89-25.23-33.68-15.35-68.07-28.93-105.21-33.37C689.42,280.36,681.12,281.19,672.83,281.19Zm16.22,63,1.16-.36c-2.34-6.29-4-13-7.17-18.8-8.44-15.55-21.52-26.85-35.9-36.73a5.72,5.72,0,0,0-4.49-.39c-40,14.3-77.26,33.71-110.14,60.86-11.06,9.13-21.38,19.15-27.53,32.4-2.06,4.44-3.71,9.63-3.54,14.41.34,9.23,4,17.65,9.71,25.08,7.34,9.63,17.08,16.13,27.53,22,8.57,4.78,16.37,5.19,25.73,1.41,45.29-18.3,83-47.3,117.22-81.36A25.11,25.11,0,0,0,689.05,344.24Z"/><path class="cls-1" d="M600.18,100H967.93a32.77,32.77,0,0,1,4.49.08,7.92,7.92,0,0,1,6.64,7.27,7.7,7.7,0,0,1-5.8,7.87,22.89,22.89,0,0,1-5.26.49q-368.16,0-736.31,0c-7.46,0-10.83-2.55-10.74-8.1a7.48,7.48,0,0,1,7-7.59c1.35-.12,2.72,0,4.08,0Z"/><path class="cls-1" d="M600.18,624.76H967.93a32.77,32.77,0,0,1,4.49.08,7.92,7.92,0,0,1,6.64,7.27,7.7,7.7,0,0,1-5.8,7.87,22.89,22.89,0,0,1-5.26.49q-368.16,0-736.31,0c-7.46,0-10.83-2.55-10.74-8.1a7.48,7.48,0,0,1,7-7.59c1.35-.12,2.72,0,4.08,0Z"/><path class="cls-1" d="M273.37,819.61V692.5h81.18v18.75h-61.4v34.57h56.93v18.75H293.15v36.29h61.58v18.75Z"/><path class="cls-1" d="M378.64,796.39l13.42-12.9c7.05,12.9,18.92,19.44,31.48,19.44,13.07,0,21.67-7.74,21.67-17.37,0-6.36-4.13-11.87-12.56-16.34q-3.1-1.55-12.9-5.68c-6.36-2.92-11.35-5.33-14.62-7.22-12.9-7.74-19.26-18.06-19.26-30.79a32.51,32.51,0,0,1,11-25.11c7.4-6.71,17-10.15,28.9-10.15,16,0,28.9,6,38.7,18.23l-12.21,13.59C445.2,713.32,436.43,709,425.94,709c-11,0-18.92,6-18.92,15.48,0,6,3.61,11.18,10.66,15.13,2.24,1.2,6.88,3.61,14.28,7.05,7.4,3.27,12.56,5.85,15.65,7.57,12.9,7.05,19.44,17.2,19.44,30.27a34.13,34.13,0,0,1-12.21,26.83c-8.08,6.88-18.58,10.32-31.3,10.32C405,821.67,387.75,812.73,378.64,796.39Z"/><path class="cls-1" d="M510.56,803.27c-12.56-12.21-18.92-27.69-18.92-46.78,0-19.26,6.36-35.09,19.26-47.47,12.9-12.56,28.38-18.75,46.61-18.75a68.88,68.88,0,0,1,31.82,7.57c9.8,5,17.37,11.52,22.88,19.78l-14.1,12.73c-10.49-13.93-23.74-20.81-40.08-20.81a44.38,44.38,0,0,0-32.68,13.42c-8.77,8.94-13.24,20.12-13.24,33.54s4.3,24.42,13.07,33,19.61,12.9,32.68,12.9c16.68,0,30.44-6.88,40.94-20.64l14.1,12.38C601,810.49,580.39,821.5,557,821.5,538.6,821.5,523.12,815.48,510.56,803.27Z"/><path class="cls-1" d="M651.95,802.93c-12.56-12.56-18.75-28-18.75-46.27,0-18.4,6.36-34.06,19.26-47s28.38-19.44,46.61-19.44c18.4,0,33.88,6.36,46.78,19.26s19.26,28.38,19.26,46.61-6.36,33.71-19.26,46.44-28.55,19.09-47.3,19.09C680.15,821.67,664.5,815.48,651.95,802.93Zm79.29-13.76c8.77-8.77,13.24-19.78,13.24-32.85,0-13.24-4.47-24.42-13.24-33.2a45.47,45.47,0,0,0-64.33.17c-8.77,8.77-13.07,19.78-13.07,33,0,12.9,4.3,23.91,12.9,32.68,8.77,8.77,19.44,13.24,32.33,13.24C711.8,802.24,722.46,797.94,731.24,789.17Z"/><path class="cls-1" d="M798.32,819.61V692.5h10.84l53.32,77.92,53-77.92h11.18V819.61h-20V738.26L865.22,798.8h-5.85l-41.45-60.54v81.35Z"/></svg>